<?xml version="1.0" ?><!DOCTYPE svg  PUBLIC '-//W3C//DTD SVG 1.1//EN'  'http://www.w3.org/Graphics/SVG/1.1/DTD/svg11.dtd'><svg enable-background="new 0 0 512 512" height="512px" id="Creative_Research" version="1.1" viewBox="0 0 512 512" width="512px" xml:space="preserve" xmlns="http://www.w3.org/2000/svg" xmlns:xlink="http://www.w3.org/1999/xlink"><path d="M255.827,0C397.14,0,512,114.859,512,256.175C512,397.485,397.14,512,255.827,512  C114.516,512,0,397.485,0,256.175C0,114.859,114.516,0,255.827,0z" fill="#CCE7D4" id="Background"/><g id="Creative_Research_1_"><path d="M217.588,14.858l33.611,42.916c0.301,0.301,0.603,0.899,0.603,1.502v340.328   c0,0.903-0.301,1.803-0.603,2.702c-1.498,5.703-8.101,8.703-13.205,10.507c-7.201,2.101-15.305,2.698-22.51,2.698   c-7.498,0-15.603-0.899-22.506-3c-5.402-1.502-12.004-4.803-13.502-10.506c0-0.599-0.301-1.201-0.301-2.101c0,0,0,0,0-0.301V58.075   c0-0.603,0.301-1.201,0.598-1.502l2.699-3.301l30.912-38.414c0.603-0.9,1.205-1.201,2.101-1.201   C216.388,13.657,216.99,13.958,217.588,14.858z M223.292,26.264l23.104,29.711l2.703,3.301v317.821v9.603v12.904   c0,18.008-66.924,17.41-67.226,0.301v-0.301v-12.904v-9.603V58.075l2.699-3.301l22.812-28.51l8.101-9.904L223.292,26.264z" fill="#4E5A62"/><polygon fill="#FFCC99" points="249.099,59.276 181.873,58.075 215.484,16.36  "/><polygon fill="#4D4D4D" points="207.383,26.264 215.484,16.36 223.292,26.264  "/><path d="M249.099,59.276l-67.226-1.201l2.699-3.301c3.004-1.502,8.109-3.904,12.31-4.502   c6-1.201,12.603,4.803,17.707,5.401c5.397,0.599,12-5.401,16.502-6.004c2.703-0.599,9.908,3.004,15.306,6.305L249.099,59.276z" fill="#FFCC99"/><path d="M249.099,59.276v340.328c0,17.707-67.226,17.41-67.226,0V58.075c9.004-1.201,13.506-6.004,16.808-6.004   s9.305,6.004,16.803,6.004c7.506,0,14.109-7.502,16.812-6.004C234.994,53.573,241.597,56.272,249.099,59.276z" fill="#E6B800"/><path d="M204.383,54.473c3,1.502,6.9,3.603,11.101,3.603c4.205,0,8.108-2.402,11.104-4.201v323.222h-22.205V54.473z   " fill="#FFCC00"/><path d="M249.099,59.276v317.821h-22.51V53.875c2.402-1.201,4.502-2.402,5.707-1.804   C234.994,53.573,241.597,56.272,249.099,59.276z" fill="#E6B800"/><polygon fill="#CFA600" points="249.099,377.097 249.099,386.699 181.873,386.699 181.873,377.097  "/><path d="M249.099,386.699v12.904c0,18.008-67.226,17.41-67.226,0v-12.904H249.099z" fill="#CC3300"/><polygon fill="#D5AB05" points="249.099,191.927 249.099,205.43 181.873,205.43 181.873,191.927  "/><polygon fill="#EBBD05" points="226.588,191.927 226.588,205.43 204.383,205.43 204.383,191.927  "/><polygon fill="#D5AB05" points="249.099,191.927 249.099,205.43 226.588,205.43 226.588,191.927  "/><polygon fill="#A6A8AB" points="266.503,59.276 290.813,69.477 290.813,59.276 298.615,73.079 298.615,469.532 266.503,456.025     "/><polygon fill="#A3A3A3" points="108.647,392.402 337.034,392.402 361.339,482.138 53.727,481.836  "/><polygon fill="#D2D3D5" points="258.404,59.276 290.813,59.276 290.813,456.025 258.404,456.025  "/><path d="M290.813,91.686v8.703l-32.408-14.401v-9.004L290.813,91.686z M290.813,101.292v9L258.404,126.2v-9.301   L290.813,101.292z M290.813,156.513v9l-32.408-15.603v-9.305L290.813,156.513z M290.813,166.417v8.703l-32.408,14.703v-9   L290.813,166.417z M290.813,222.538v9.004l-32.408-14.707v-8.703L290.813,222.538z M290.813,232.441v9.004l-32.408,15.607v-9.005   L290.813,232.441z M290.813,287.362v9.305l-32.408-15.606v-9.306L290.813,287.362z M290.813,297.266v9.004l-32.408,14.707v-9.004   L290.813,297.266z M290.813,353.688v9.004l-32.408-14.707v-9.004L290.813,353.688z M290.813,363.289v9.306l-32.408,15.606v-9.004   L290.813,363.289z M290.813,418.511v9.306l-32.408-15.908v-9L290.813,418.511z M290.813,428.415v9.004l-32.408,14.707v-9.004   L290.813,428.415z" fill="#BDBFC1"/><polygon fill="#8D8D8D" points="123.35,399.005 317.824,399.005 338.531,475.535 76.53,475.234  "/><path d="M150.363,384.599c3,0,5.699,0.603,8.401,1.503c3.004-5.104,8.703-8.406,15.004-8.406   c2.401,0,5.104,0.603,7.205,1.502c5.703-5.101,13.205-8.104,21.305-8.104c8.109,0,15.607,3.004,21.313,8.104   c3.9-1.799,8.402-3,13.205-3c8.101,0,15.603,3,21.305,8.101c2.099-0.899,4.5-1.498,7.203-1.498c6.302,0,11.703,3.302,15.005,8.401   c2.401-0.899,5.401-1.498,8.401-1.498c15.306,0,27.912,12.603,27.912,28.21c0,4.803-1.201,9.603-3.302,13.506   c1.502,3.302,2.101,7.201,2.101,11.104c0,15.306-12.306,27.908-27.61,27.908c-8.703,0-16.205-3.899-21.31-10.201   c-5.699,4.498-12.902,7.201-20.706,7.201c-12.004,0-22.205-6.004-28.209-15.306c-6.305,6.302-14.707,10.205-24.31,10.205   c-7.803,0-15.008-2.703-20.707-6.903c-5.104,6-12.904,9.903-21.31,9.903c-15.306,0-27.611-12.606-27.611-27.912   c0-3.899,0.603-7.804,2.101-11.104c-2.101-3.899-3.301-8.703-3.301-13.502C122.451,397.206,135.057,384.599,150.363,384.599z" fill="#CFCFCF"/><path d="M217.886,459.327c-2.699-2.101-4.799-4.502-6.9-7.502c-6.004,6.301-14.707,10.205-24.012,10.205   c-7.799,0-15.004-2.703-20.703-7.205c-2.104,2.401-4.502,4.502-7.205,6.305c-7.506-2.702-12.904-9.903-12.904-18.31   c0-3.301,0.896-6.603,2.402-9.301c-0.904-2.401-1.506-4.804-1.506-7.502c0-10.808,8.406-19.209,18.912-19.209   c1.197,0,2.101,0,3,0.301c3.603,0.899,6.603,3,9,6c0.603-0.297,0.904-0.599,1.205-0.899c0.598,0.301,1.197,0.899,1.498,1.502   c3.899-3.301,9.004-5.104,14.406-5.104c1.201,0,2.401,0.301,3.603,0.301c9.903,3,16.803,11.703,16.803,22.511   c0,0.899,0,2.101-0.297,3c3.301,3.899,5.402,9.004,5.402,14.406C220.588,452.725,219.689,456.327,217.886,459.327z" fill="#BABABA"/><path d="M255.701,444.624c-0.598-0.302-1.498-0.302-2.1-0.603c-1.201,2.401-3.599,4.201-6.301,5.104   c-0.301,0-0.603,0-1.201,0c-1.803,0-3.301-0.301-4.799-0.903c-0.603,0.301-0.904,0.603-1.506,0.903   c-0.297,0-0.896-0.301-1.197-0.603c-2.402,2.401-5.406,3.904-8.402,4.804c-1.205,0.301-2.401,0.301-3.606,0.301   c-12.301,0-22.205-9.903-22.205-22.209c0-5.401,2.101-10.506,5.402-14.405c-0.301-0.9-0.301-1.804-0.301-3.005   c0-10.502,7.205-19.506,16.808-22.205c1.201-0.301,2.401-0.301,3.602-0.301c5.402,0,10.502,1.799,14.402,4.803   c0.301-0.602,0.904-0.903,1.502-1.502c0.301,0.302,0.599,0.599,1.201,0.9c2.401-2.703,5.401-4.804,9.004-6.001   c0.9,0,2.1-0.301,3-0.301c10.504,0,18.905,8.703,18.905,19.205c0,2.703-0.599,5.401-1.498,7.804   c1.498,2.702,2.397,5.702,2.397,9.305c0,8.703-5.702,15.904-13.803,18.306c-0.899,0.301-1.804,0.301-3,0.301   c-1.804,0-3.902-0.301-5.701-0.899C256.002,443.725,256.002,444.021,255.701,444.624z" fill="#BABABA"/><path d="M168.969,457.527c0.598-0.301,1.201-0.301,1.799-0.598c1.502,2.397,3.904,4.2,6.305,5.101   c0.599,0,0.896,0,1.498,0c1.799,0,3.301-0.302,4.803-0.9c0.603,0.298,0.9,0.599,1.498,0.9c0.301,0,0.904-0.302,1.205-0.302   c2.397,2.101,5.397,3.603,8.401,4.502c1.197,0.302,2.402,0.302,3.599,0.302c12.31,0,22.209-9.904,22.209-22.21   c0-5.401-2.101-10.204-5.401-14.104c0-1.2,0.301-2.1,0.301-3.301c0-10.506-7.201-19.511-16.807-22.209   c-1.197-0.302-2.402-0.302-3.9-0.302c-5.406,0-10.205,1.804-14.108,4.804c-0.599-0.302-0.896-0.899-1.498-1.502   c-0.301,0.301-0.904,0.603-1.201,0.899c-2.402-2.699-5.402-4.799-9.004-6c-1.201,0-2.101,0-3,0   c-10.502,0-19.205,8.401-19.205,18.908c0,2.698,0.594,5.401,1.799,7.803c-1.502,2.699-2.402,6-2.402,9.302   c0,8.703,5.699,15.907,13.808,18.31c0.896,0.297,1.799,0.297,2.699,0.297c2.101,0,4.201-0.297,6.004-0.899   C168.371,456.628,168.668,457.227,168.969,457.527z" fill="#E6E6E6"/><polygon fill="#666666" points="53.727,481.836 361.339,481.836 361.339,492.94 53.727,492.94  "/><path d="M96.94,490.238c0.301,0,0.603,0,0.904-0.298c0.896,1.498,2.101,2.699,3.599,3c0.301,0,0.603,0,0.899,0   c0.899,0,2.104,0,3-0.602c0,0.301,0.301,0.602,0.603,0.602s0.603,0,0.899,0c1.201,1.201,3,2.101,4.804,2.699c0.598,0,1.502,0,2.1,0   c7.201,0,12.904-5.699,12.904-12.903c0-3-1.201-6-3.301-8.104c0.301-0.6,0.301-1.197,0.301-2.101c0-3.302-1.201-6.603-3.603-8.703   c0.301-0.599,0.301-0.899,0.301-1.201c0-0.598-0.301-1.2-0.301-1.799c4.502-2.401,7.502-6.904,7.502-12.306   c0-7.803-6.301-14.104-14.104-14.104c-3.904,0-7.502,1.799-10.205,4.201c-2.401-1.8-5.397-3-8.401-3   c-7.803,0-14.104,6.301-14.104,14.104c0,5.101,2.397,9.305,6.301,12.004c-1.799,1.804-3.301,4.804-3.301,7.804   c0,1.502,0.301,3,0.903,4.501c-0.903,1.502-1.205,3.301-1.205,5.401c0,5.104,3.305,9.306,7.807,10.804c0.599,0,1.197,0,1.799,0   c1.197,0,2.402-0.298,3.297-0.599C96.639,489.94,96.639,490.238,96.94,490.238z" fill="#E6E6E6"/><path d="M146.76,480.334c-0.297,0-0.599-0.297-0.9-0.297c-0.903,1.498-2.1,2.397-3.603,3c-0.297,0-0.598,0-0.899,0   c-0.904,0-2.101-0.301-2.703-0.603c-0.301,0.302-0.599,0.302-0.9,0.603c-0.297,0-0.598-0.301-0.899-0.301   c-1.201,1.2-3.004,2.1-4.803,2.702c-0.599,0-1.197,0.298-2.101,0.298c-6.904,0-12.904-6-12.904-12.903c0-3.301,1.201-6,3.301-8.401   c-0.301-0.603-0.301-1.201-0.301-1.804c0-6,4.205-11.401,9.904-12.903c0.603,0,1.201-0.302,2.101-0.302   c3.004,0,6.004,1.201,8.401,3.005c0-0.302,0.301-0.603,0.603-0.904c0.301,0,0.603,0.302,0.904,0.603   c1.197-1.799,2.996-3,5.096-3.603c0.603,0,1.205,0,1.803,0c6.004,0,11.105,4.804,11.105,11.104c0,1.502-0.297,3-0.9,4.201   c0.9,1.803,1.201,3.603,1.201,5.401c0,5.104-3.301,9.605-7.803,10.807c-0.603,0-1.201,0.297-1.799,0.297   c-1.205,0-2.402-0.297-3.306-0.598C147.057,480.037,147.057,480.037,146.76,480.334z" fill="#E6E6E6"/><path d="M255.103,440.122c-0.599,0-1.201-0.302-1.803-0.302c-1.498,2.101-3.599,3.904-6.301,5.101   c-0.301,0-0.9,0-1.201,0c-1.799,0-3.602-0.599-5.1-1.196c-0.301,0.297-0.904,0.899-1.201,1.196   c-0.598-0.297-0.899-0.297-1.502-0.599c-2.401,2.101-5.101,3.9-8.401,4.804c-1.201,0-2.101,0.297-3.301,0.297   c-12.306,0-22.209-9.903-22.209-22.205c0-5.405,1.803-10.506,5.101-14.405c0-0.904,0-2.104,0-3.004   c0-10.804,6.904-19.507,16.51-22.21c1.498-0.297,2.699-0.598,3.9-0.598c5.401,0,10.502,2.101,14.406,5.101   c0.297-0.599,0.899-1.201,1.201-1.498c0.598,0.297,0.899,0.598,1.197,0.899c2.401-3,5.707-5.104,9.305-6.004   c0.9-0.298,1.804-0.298,2.703-0.298c10.5,0,19.203,8.703,19.203,19.205c0,2.703-0.599,5.104-1.498,7.502   c1.498,2.703,2.401,6.005,2.401,9.306c0,8.703-6.004,16.205-13.808,18.606c-0.899,0-2.101,0.302-3,0.302   c-2.098,0-3.901-0.302-5.701-0.899C255.701,439.52,255.4,439.82,255.103,440.122z" fill="#E6E6E6"/><path d="M288.415,469.532c-0.603,0-0.904,0-1.201,0c-0.903,1.2-2.101,2.401-3.603,2.702c-0.301,0-0.599,0-0.899,0   c-0.899,0-1.804,0-2.703-0.602c-0.301,0.301-0.599,0.602-0.899,0.899c-0.302-0.298-0.599-0.298-0.899-0.298   c-1.201,1.201-3,2.1-4.804,2.699c-0.599,0-1.201,0-2.101,0c-6.903,0-12.901-5.703-12.901-12.903c0-3.001,1.201-6.005,3.299-8.105   c-0.301-0.598-0.301-1.2-0.301-2.1c0-3.302,1.502-6.603,3.603-8.703c0-0.599,0-0.899,0-1.201c0-0.599,0-1.2,0-1.799   c-4.502-2.401-7.203-6.904-7.203-12.306c0-7.803,6.304-14.104,13.806-14.104c4.2,0,7.502,1.799,10.205,4.201   c2.397-1.8,5.401-3,8.702-3c7.503,0,13.804,6.301,13.804,14.104c0,5.101-2.401,9.301-6.301,12.004   c2.1,1.799,3.301,4.804,3.301,7.804c0,1.502-0.301,3-0.899,4.502c0.899,1.498,1.2,3.301,1.2,5.401   c0,5.101-3.301,9.302-7.803,10.804c-0.603,0-1.201,0-1.804,0c-1.2,0-2.101-0.302-3.301-0.599   C288.712,469.23,288.415,469.532,288.415,469.532z" fill="#E6E6E6"/><polygon fill="#D2D3D5" points="166.567,172.718 258.404,172.718 258.404,199.727 166.567,199.727  "/><polygon fill="#B3B5B7" points="258.404,184.124 258.404,199.727 166.567,199.727 166.567,184.124  "/><path d="M363.443,480.636l-24.012-88.832c-0.298-1.2-1.201-2.101-2.397-2.101h-35.716V73.079   c0-0.598,0-0.899-0.301-1.498l-8.101-13.506c-0.302-0.9-1.201-1.502-2.104-1.502h-32.408c-1.502,0-2.703,1.201-2.703,2.703v110.739   h-89.134c-1.502,0-2.699,1.201-2.699,2.703v27.008c0,1.502,1.197,2.703,2.699,2.703h89.134v176.768   c-5.401-3.603-12.004-5.703-18.904-5.703c-4.502,0-8.703,0.9-12.908,2.703c-6.301-5.104-13.803-7.803-21.611-7.803   c-8.101,0-15.603,2.698-21.908,7.803c-2.101-0.899-4.201-1.201-6.603-1.201c-6.301,0-12.301,3-15.904,7.804   c-2.402-0.301-5.101-0.603-7.502-0.603c-7.506,0-14.707,2.703-20.109,7.506h-21.607c-0.903,0-1.502,0.599-2.1,1.197l-54.925,89.434   c-0.297,0.603-0.297,0.904-0.297,1.502v11.104c0,1.503,1.197,2.699,2.401,2.699h51.917c0.301,0,0.301,0,0.603,0   c1.498,1.201,3,1.804,4.803,2.401c0,0,0,0,0.297,0c0.598,0.302,1.502,0.302,2.401,0.302c3,0,6.004-0.899,8.406-2.703h239.186   c1.502,0,2.703-1.196,2.703-2.699v-10.803v-0.302C364.042,481.535,363.741,480.937,363.443,480.636z M361.339,482.138v10.803   H121.551c-2.401,1.8-4.803,2.699-7.803,2.699c-0.598,0-1.502,0-2.1,0c-1.804-0.599-3.301-1.498-4.502-2.699h-1.201H53.727v-11.104   l54.92-89.434h22.506c5.101-4.804,11.703-7.804,19.209-7.804c3,0,5.699,0.603,8.401,1.503c3.004-5.104,8.703-8.406,15.004-8.406   c2.401,0,5.104,0.603,7.205,1.502c5.703-5.101,13.205-8.104,21.305-8.104c8.109,0,15.607,3.004,21.313,8.104   c3.9-1.799,8.402-3,13.205-3c8.101,0,15.603,3,21.305,8.101h0.302v-5.101v-31.213v-9.004v-18.004v-9.004v-30.912v-9.306v-14.702   v-9.005v-31.212v-8.703v-8.406h-91.837v-15.603v-11.406h91.837v-22.808v-9.305V126.2v-9.301V85.987v-9.004V59.276h8.099h24.31   l7.803,13.803v318.725c0.603,0,1.201,0.298,1.804,0.599h36.615l24.305,89.434V482.138z" fill="#4E5A62"/><path d="M161.467,221.939c1.197,0,2.1,0.896,2.1,1.799c0,1.201-0.903,2.101-2.1,2.101h-3.603   c-0.9,0-1.803-0.899-1.803-2.101c0-0.903,0.903-1.799,1.803-1.799H161.467z M80.434,312.273c-0.9,0-1.799-0.603-1.799-1.803   c0-0.899,0.899-1.8,1.799-1.8h3.903c0.9,0,1.799,0.9,1.799,1.8c0,1.2-0.899,1.803-1.799,1.803H80.434z M95.442,312.273   c-0.904,0-1.803-0.603-1.803-1.803c0-0.899,0.899-1.8,1.803-1.8h3.598c1.201,0,2.101,0.9,2.101,1.8c0,1.2-0.9,1.803-2.101,1.803   H95.442z M110.446,312.273c-1.201,0-2.1-0.603-2.1-1.803c0-0.899,0.899-1.8,2.1-1.8h3.599c0.903,0,1.803,0.9,1.803,1.8   c0,1.2-0.9,1.803-1.803,1.803H110.446z M116.748,299.969c0,1.2-0.899,1.799-2.1,1.799c-0.9,0-1.799-0.599-1.799-1.799v-3.603   c0-1.201,0.899-1.8,1.799-1.8c1.201,0,2.1,0.599,2.1,1.8V299.969z M116.748,285.262c0,0.899-0.899,1.799-2.1,1.799   c-0.9,0-1.799-0.899-1.799-1.799v-3.9c0-0.903,0.899-1.803,1.799-1.803c1.201,0,2.1,0.899,2.1,1.803V285.262z M116.748,270.257   c0,0.9-0.899,1.8-2.1,1.8c-0.9,0-1.799-0.899-1.799-1.8v-3.903c0-0.899,0.899-1.799,1.799-1.799c1.201,0,2.1,0.899,2.1,1.799   V270.257z M116.748,255.253c0,1.197-0.899,1.8-2.1,1.8c-0.9,0-1.799-0.603-1.799-1.8v-3.606c0-1.197,0.899-1.799,1.799-1.799   c1.201,0,2.1,0.603,2.1,1.799V255.253z M116.748,240.245c0,1.201-0.899,2.101-2.1,2.101c-0.9,0-1.799-0.9-1.799-2.101v-3.603   c0-0.899,0.899-1.799,1.799-1.799c1.201,0,2.1,0.899,2.1,1.799V240.245z M116.748,225.839c-0.301,0.899-0.899,1.498-2.1,1.498   c-0.9,0-1.799-0.896-1.799-1.799v-1.799c0-0.903,0.899-1.799,1.799-1.799h2.1c1.201,0,2.101,0.896,2.101,1.799   C118.848,224.939,117.948,225.839,116.748,225.839L116.748,225.839z M128.153,225.839c-1.201,0-2.1-0.899-2.1-2.101   c0-0.903,0.899-1.799,2.1-1.799h3.599c0.904,0,1.803,0.896,1.803,1.799c0,1.201-0.899,2.101-1.803,2.101H128.153z M142.856,225.839   c-0.896,0-1.799-0.899-1.799-2.101c0-0.903,0.904-1.799,1.799-1.799h3.904c0.899,0,1.803,0.896,1.803,1.799   c0,1.201-0.904,2.101-1.803,2.101H142.856z" fill="#4E5A62"/><path d="M496.092,180.823h-88.531c-7.506,0-13.506,6-13.506,13.502v51.322c0,7.205,6,13.506,13.506,13.506h67.824   l19.808,25.209l0.301-25.209h0.599c7.205,0,13.507-6.301,13.507-13.506v-51.322C509.599,186.823,503.297,180.823,496.092,180.823z" fill="#FFAB00"/><path d="M369.143,151.71h115.246c9.603,0,17.406,7.803,17.406,17.406v66.928c0,9.603-7.804,17.406-17.406,17.406   h-88.233l-25.812,33.012l-0.298-33.012h-0.903c-9.603,0-17.406-7.803-17.406-17.406v-66.928   C351.736,159.513,359.54,151.71,369.143,151.71z" fill="#FFCA28"/><path d="M421.967,273.257c0-1.2-1.201-2.401-2.703-2.401c-1.201,0-2.401,1.201-2.401,2.401v5.101   c0,1.502,1.2,2.703,2.401,2.703c1.502,0,2.703-1.201,2.703-2.703V273.257z M315.122,334.779c-1.498,0-2.397,1.2-2.397,2.703   c0,1.2,0.899,2.401,2.397,2.401h5.104c1.498,0,2.698-1.201,2.698-2.401c0-1.503-1.2-2.703-2.698-2.703H315.122z M335.531,334.779   c-1.502,0-2.401,1.2-2.401,2.703c0,1.2,0.899,2.401,2.401,2.401h5.101c1.502,0,2.703-1.201,2.703-2.401   c0-1.503-1.201-2.703-2.703-2.703H335.531z M355.938,334.779c-1.498,0-2.699,1.2-2.699,2.703c0,1.2,1.201,2.401,2.699,2.401h5.104   c1.498,0,2.401-1.201,2.401-2.401c0-1.503-0.903-2.703-2.401-2.703H355.938z M376.348,334.779c-1.502,0-2.703,1.2-2.703,2.703   c0,1.2,1.201,2.401,2.703,2.401h5.101c1.502,0,2.401-1.201,2.401-2.401c0-1.503-0.899-2.703-2.401-2.703H376.348z M396.753,334.779   c-1.498,0-2.698,1.2-2.698,2.703c0,1.2,1.2,2.401,2.698,2.401h5.104c1.498,0,2.402-1.201,2.402-2.401   c0-1.503-0.904-2.703-2.402-2.703H396.753z M416.862,334.779c-1.201,0.301-2.402,1.2-2.402,2.703c0,1.2,1.201,2.401,2.703,2.401   h2.101c1.502,0,2.703-1.201,2.703-2.401v-3c0-1.503-1.201-2.402-2.703-2.402c-1.201,0-2.401,0.899-2.401,2.402V334.779z    M416.862,319.174c0,1.502,1.2,2.702,2.401,2.702c1.502,0,2.703-1.2,2.703-2.702v-5.101c0-1.502-1.201-2.402-2.703-2.402   c-1.201,0-2.401,0.9-2.401,2.402V319.174z M416.862,298.768c0,1.502,1.2,2.699,2.401,2.699c1.502,0,2.703-1.197,2.703-2.699v-5.101   c0-1.502-1.201-2.401-2.703-2.401c-1.201,0-2.401,0.899-2.401,2.401V298.768z" fill="#4E5A62"/><path d="M504.498,180.823v-11.707c0-11.104-9.005-20.109-20.109-20.109H369.143   c-11.101,0-20.104,9.004-20.104,20.109v66.928c0,10.502,8.101,18.908,18.306,19.808l0.301,30.61c0,0.9,0.599,2.101,1.799,2.402   c0.9,0.301,2.101,0,3-0.9l24.013-30.911c3,2.999,6.899,4.502,11.104,4.502h66.623l18.908,24.31c0.603,0.899,1.8,1.196,3,0.899   c1.201-0.302,1.804-1.201,1.804-2.402v-22.807c8.101-0.904,14.104-7.808,14.104-15.908v-51.322   C512,188.622,509.297,183.521,504.498,180.823z M509.599,245.646c0,7.205-6.302,13.506-13.507,13.506h-0.599l-0.301,25.209   l-19.808-25.209h-67.824c-4.502,0-8.707-2.401-11.104-5.703h-0.301l-25.812,33.012l-0.298-33.012h-0.903   c-9.603,0-17.406-7.803-17.406-17.406v-66.928c0-9.603,7.804-17.406,17.406-17.406h115.246c9.603,0,17.406,7.803,17.406,17.406   v13.205c4.502,2.101,7.804,6.603,7.804,12.004V245.646z" fill="#4E5A62"/><path d="M45.02,221.939c23.41,0,42.615,22.506,42.615,42.615c0,20.108-9.301,31.51-23.104,38.715l0,0H27.313   c-14.707-6.603-24.606-21.31-24.908-38.414C2.405,241.145,21.61,221.939,45.02,221.939z M64.53,303.27L64.53,303.27L64.53,303.27z    M27.313,324.278v-0.302v-20.108c0-0.297,0-0.297,0-0.599l0,0c0,0.302,0,0.302,0,0.599V324.278z" fill="#FFCC29"/><path d="M64.53,303.27c0,0.302,0,0,0,0.599v23.409c0,5.101-3.306,9.004-7.506,9.004H35.116   c-4.201,0-7.502-3.903-7.804-9.004v-23.409c0-0.297,0-0.297,0-0.599l0,0H64.53z" fill="#BDBFC1"/><path d="M27.362,307.454l37.844-0.102c1.347,0,2.442,1.079,2.446,2.414l0,0c0.004,1.339-1.087,2.422-2.438,2.426   l-37.84,0.098c-1.352,0.004-2.442-1.074-2.451-2.41l0,0C24.923,308.541,26.014,307.454,27.362,307.454z" fill="#A9ABAE"/><path d="M27.39,316.865l37.84-0.098c1.351-0.004,2.446,1.079,2.45,2.414l0,0c0,1.335-1.091,2.422-2.438,2.426   l-37.844,0.098c-1.343,0.004-2.442-1.074-2.447-2.413l0,0C24.948,317.956,26.039,316.869,27.39,316.865z" fill="#A9ABAE"/><path d="M27.406,325.69l37.844-0.098c1.348-0.004,2.447,1.074,2.451,2.413l0,0c0.004,1.336-1.087,2.422-2.438,2.426   l-37.84,0.098c-1.352,0.004-2.447-1.078-2.451-2.414l0,0C24.972,326.781,26.063,325.694,27.406,325.69z" fill="#A9ABAE"/><polygon fill="#FFF212" points="34.514,261.555 57.325,261.555 59.125,261.555 59.125,263.354 59.125,303.27 55.526,303.27    55.526,264.855 36.317,264.855 36.317,303.27 33.016,303.27 33.016,263.354 33.016,261.555  "/><path d="M90.338,264.555c0-11.406-5.699-22.507-13.205-30.615c-8.402-9-19.808-14.703-32.113-14.703   c-24.908,0.302-45.318,20.41-45.017,45.619c0,17.104,9.607,32.41,24.611,40.214v0.602c-1.201,0.599-2.401,2.398-2.401,4.201   c0,1.799,1.201,3.603,2.703,4.502v0.599c-1.502,0.899-2.703,2.401-2.703,4.201c0,2.104,1.201,3.603,2.703,4.502   c-1.502,0.899-2.703,2.702-2.703,4.502c0,2.4,1.799,4.2,3.899,4.802c1.799,3.603,5.104,6.001,9.004,6.001h21.908   c3.904,0,7.205-2.398,9.004-6.001c2.401-0.301,4.201-2.401,4.201-5.099c0-1.804-0.899-3.306-2.402-4.205   c1.502-0.899,2.402-2.699,2.402-4.502c0-2.101-1.197-3.9-3-4.498v-0.302c1.803-0.603,3-2.401,3-4.502s-1.197-3.903-3-4.803v-0.302   C82.835,296.064,90.338,282.859,90.338,264.555z M65.128,307.471c1.502,0,2.402,0.899,2.402,2.401c0,1.201-0.9,2.401-2.402,2.401   H64.53v4.503h0.598c1.502,0,2.402,1.196,2.402,2.397c0.297,1.2-0.9,2.401-2.402,2.401H64.53v3.903h0.598   c1.502,0,2.699,1.201,2.699,2.402c0,1.496-1.197,2.396-2.401,2.697h-1.197c-1.201,3.302-3.9,5.703-7.205,5.703H35.116   c-3.301,0-6-2.401-7.205-5.703h-0.599c-1.201,0-2.397-1.201-2.397-2.4c0-1.498,1.197-2.401,2.397-2.401v-1.8v-2.401   c-1.201,0-2.397-0.899-2.397-2.401c0-1.201,1.197-2.397,2.397-2.397v-4.503c-1.201,0-2.397-1.2-2.397-2.401   s1.197-2.401,2.397-2.401v-3.603c0-0.297,0-0.297,0-0.599c-14.707-6.603-24.606-21.31-24.908-38.414   c0-23.711,19.205-42.916,42.615-42.916c23.41,0,42.615,22.506,42.615,42.615c0,20.108-9.301,31.51-23.104,38.715   c0,0.302,0,0.302,0,0.599v3.603H65.128z" fill="#4E5A62"/></g></svg>